<?xml version="1.0" standalone="no"?>
<!DOCTYPE svg PUBLIC "-//W3C//DTD SVG 20010904//EN"
 "http://www.w3.org/TR/2001/REC-SVG-20010904/DTD/svg10.dtd">
<svg version="1.0" xmlns="http://www.w3.org/2000/svg"
 width="1990.000000pt" height="1305.000000pt" viewBox="0 0 1990.000000 1305.000000"
 preserveAspectRatio="xMidYMid meet">

<g transform="translate(0.000000,1305.000000) scale(0.100000,-0.100000)"
fill="#000000" stroke="none">
<path d="M13165 13038 c-16 -44 -67 -242 -89 -346 -81 -383 -140 -944 -161
-1527 -3 -88 -8 -215 -11 -283 -6 -120 -7 -123 -28 -116 -11 4 -41 13 -65 19
l-43 12 -129 359 c-312 865 -432 1257 -472 1532 l-13 87 -38 -3 c-21 -2 -70
-13 -109 -25 l-72 -23 -12 -74 c-19 -114 -70 -525 -102 -837 -78 -735 -119
-1315 -128 -1778 -7 -422 7 -586 55 -644 15 -19 24 -21 79 -15 l62 7 15 51
c28 98 57 324 126 987 39 383 75 680 86 725 6 22 11 23 87 26 l81 3 37 -180
c99 -485 240 -930 380 -1205 123 -240 238 -345 358 -325 75 13 78 20 106 230
134 1008 220 2476 188 3203 l-6 152 -89 0 c-62 0 -90 -4 -93 -12z"/>
<path d="M15261 12958 c-159 -156 -262 -828 -297 -1945 -4 -117 -10 -213 -13
-213 -20 0 -145 117 -192 181 -205 273 -299 573 -433 1384 -43 257 -88 481
-100 492 -8 8 -61 -34 -103 -81 -82 -93 -155 -288 -208 -551 -96 -479 -135
-1125 -135 -2225 l0 -639 85 54 c47 29 99 57 116 60 17 4 32 12 34 18 3 7 11
206 20 442 16 448 40 958 51 1081 l6 72 51 -21 c65 -27 174 -129 225 -211 82
-128 127 -234 250 -587 131 -372 200 -509 313 -615 59 -55 79 -68 139 -89 l39
-14 39 82 c166 343 244 926 258 1912 8 535 -10 1425 -28 1437 -7 4 -29 8 -49
8 -26 0 -43 -8 -68 -32z"/>
<path d="M6075 12899 c-820 -49 -1719 -172 -2775 -380 -348 -69 -1350 -292
-1825 -407 l-320 -78 1 -99 c1 -173 50 -348 136 -491 165 -275 479 -443 953
-511 109 -15 195 -18 530 -18 246 0 458 5 550 13 287 25 904 103 1525 192 898
129 1260 172 1665 199 757 51 1281 -12 1638 -196 328 -169 507 -432 562 -823
8 -61 15 -137 15 -169 l0 -58 -77 -62 c-132 -104 -297 -178 -516 -231 -237
-57 -481 -83 -942 -100 -159 -6 -296 -13 -302 -15 -7 -2 -15 6 -18 18 -3 12
-9 365 -14 785 -4 419 -10 765 -13 768 -10 9 -64 -18 -96 -49 -137 -132 -218
-533 -238 -1174 l-7 -223 -216 0 c-353 0 -872 32 -1321 81 -440 47 -849 110
-1705 259 -1490 260 -1969 317 -2768 327 l-418 6 -25 -24 c-36 -34 -54 -72
-54 -116 0 -84 81 -161 210 -199 144 -43 1763 -330 2920 -518 1576 -256 2690
-403 3208 -423 l172 -6 0 -62 c0 -34 -9 -329 -20 -656 -153 -4600 -189 -7700
-95 -8262 15 -85 57 -197 75 -197 5 0 19 20 33 44 170 305 267 1118 319 2676
15 462 17 2809 4 4735 -6 970 -6 1356 3 1520 7 121 13 220 14 222 1 1 209 6
462 12 549 13 671 26 890 98 314 102 552 324 728 678 30 61 72 155 93 210 38
97 39 104 38 215 -3 229 -63 436 -177 605 -54 80 -186 209 -272 266 -383 254
-990 360 -1880 329 -497 -18 -889 -52 -1885 -165 -1083 -123 -1437 -150 -1940
-150 -313 1 -410 4 -520 19 -258 34 -425 80 -568 157 -98 52 -194 127 -190
147 4 23 122 119 215 175 293 176 881 315 1613 382 1011 92 2408 82 4435 -30
994 -55 1258 -65 1299 -49 26 10 19 24 -21 40 -20 9 -68 49 -106 91 -367 392
-991 610 -1935 673 -174 11 -850 11 -1047 -1z"/>
<path d="M16436 12893 c-3 -10 -12 -58 -21 -108 -47 -257 -125 -556 -312
-1205 -348 -1206 -442 -1590 -518 -2100 -20 -136 -46 -382 -41 -387 2 -3 28
20 58 49 96 97 189 293 283 598 26 85 55 161 64 168 26 22 119 9 193 -27 78
-37 169 -102 387 -277 179 -145 283 -211 378 -243 111 -37 215 -21 294 47 l39
34 0 139 c0 335 -89 906 -255 1633 -111 486 -292 1144 -392 1421 -79 219 -139
318 -157 258z m43 -1449 c39 -104 161 -497 220 -708 98 -352 158 -634 176
-823 6 -72 6 -73 -17 -73 -13 0 -29 -5 -36 -12 -12 -12 -145 108 -467 423
l-159 157 12 208 c17 281 42 457 103 728 16 70 29 130 29 132 0 10 47 23 82
23 35 1 37 -1 57 -55z"/>
<path d="M10722 12863 c-30 -58 -170 -366 -260 -568 -394 -890 -627 -1625
-717 -2260 -22 -150 -45 -421 -45 -526 l0 -87 36 -32 36 -31 21 33 c77 125
186 394 203 499 4 21 10 42 14 44 16 10 198 -28 298 -61 258 -85 474 -238 695
-491 l89 -103 76 0 75 0 -6 328 c-6 347 -11 415 -57 857 -85 808 -255 1799
-391 2285 -23 80 -43 147 -44 148 -2 2 -12 -13 -23 -35z m-73 -1373 c43 -157
84 -388 111 -635 11 -100 80 -843 80 -861 0 -6 -24 -14 -52 -17 -29 -3 -60 -7
-69 -9 -14 -3 -250 199 -418 358 l-53 50 11 310 c14 399 19 420 153 709 41 88
92 201 114 251 l39 92 28 -72 c15 -39 40 -118 56 -176z"/>
<path d="M17335 8739 c-1112 -81 -1991 -1301 -2145 -2979 -16 -172 -13 -589 5
-768 93 -919 460 -1572 1040 -1852 280 -136 516 -171 820 -121 556 92 1100
343 1595 735 148 118 454 420 566 561 384 480 595 963 669 1524 20 150 20 461
0 616 -61 481 -247 946 -559 1399 -92 133 -126 163 -379 342 -470 330 -943
521 -1342 540 -60 2 -123 6 -140 7 -16 2 -75 0 -130 -4z m395 -564 c202 -24
387 -72 588 -151 125 -49 345 -157 452 -221 96 -56 222 -196 351 -388 477
-711 488 -1680 29 -2545 -204 -385 -497 -716 -831 -942 -266 -180 -575 -293
-858 -314 -213 -15 -624 120 -886 293 -498 328 -806 866 -907 1583 -19 141
-16 582 5 735 90 637 331 1150 705 1506 372 354 838 507 1352 444z"/>
<path d="M8800 8551 c-243 -81 -388 -140 -575 -231 -499 -244 -780 -547 -828
-892 -6 -37 -5 -38 36 -49 191 -51 696 176 1062 477 289 237 448 471 490 717
3 20 2 37 -2 36 -4 0 -87 -26 -183 -58z"/>
<path d="M13396 8580 c-318 -36 -703 -185 -1023 -396 -61 -41 -114 -78 -117
-83 -3 -5 3 -74 13 -152 85 -625 110 -1073 118 -2111 l6 -756 31 -5 c58 -9
100 26 141 114 36 80 60 182 100 428 53 323 83 475 116 591 29 101 98 259 122
278 8 6 48 5 113 -3 415 -55 743 -234 989 -541 418 -521 619 -1325 660 -2639
3 -104 10 -420 15 -702 13 -617 31 -846 81 -980 24 -62 63 -113 88 -113 10 0
51 -9 91 -19 41 -11 76 -18 79 -15 9 9 51 327 71 534 57 608 38 1301 -51 1910
-172 1179 -571 2194 -1118 2850 l-79 95 5 55 c14 155 64 264 218 479 63 88
131 187 151 221 l36 62 -7 97 c-24 331 -115 544 -290 676 -135 102 -344 149
-559 125z m247 -430 c180 -45 267 -147 267 -309 -1 -191 -155 -405 -409 -568
-145 -94 -379 -184 -578 -224 -88 -18 -107 -19 -115 -8 -6 8 -7 76 -4 167 7
160 41 698 52 789 l5 52 107 35 c91 29 240 65 332 79 14 2 79 5 146 6 91 1
140 -4 197 -19z"/>
<path d="M10850 8413 c-181 -31 -430 -140 -659 -288 l-74 -48 6 -1066 c3 -586
11 -1156 17 -1266 9 -183 23 -301 35 -313 9 -9 183 52 280 98 248 120 470 308
660 562 250 332 415 734 481 1168 26 172 24 423 -5 565 -65 321 -221 518 -458
580 -53 14 -220 19 -283 8z m357 -422 c29 -4 56 -10 59 -14 14 -13 17 -268 5
-360 -65 -490 -335 -1109 -613 -1402 -94 -100 -196 -175 -208 -155 -36 59 -31
1153 8 1710 l7 95 60 40 c116 78 255 107 475 99 85 -3 179 -9 207 -13z"/>
<path d="M9060 7565 c-25 -13 -157 -71 -295 -130 -264 -113 -526 -240 -635
-308 -330 -206 -521 -449 -555 -702 -7 -59 11 -91 70 -119 232 -111 886 282
1306 783 92 109 198 261 193 276 -2 6 -12 58 -22 116 l-17 107 -45 -23z"/>
<path d="M9030 6284 c-142 -22 -223 -44 -357 -99 -283 -117 -608 -353 -949
-690 l-153 -150 37 -75 c46 -93 73 -111 169 -111 254 0 729 276 1075 624 145
146 242 273 327 430 l43 77 -84 -1 c-45 -1 -94 -3 -108 -5z"/>
</g>
</svg>
